<?xml version="1.0" encoding="UTF-8" standalone="no"?>
<svg
   xmlns:dc="http://purl.org/dc/elements/1.1/"
   xmlns:cc="http://creativecommons.org/ns#"
   xmlns:rdf="http://www.w3.org/1999/02/22-rdf-syntax-ns#"
   xmlns:svg="http://www.w3.org/2000/svg"
   xmlns="http://www.w3.org/2000/svg"
   version="1.1"
   x="0px"
   y="0px"
   width="712.78101"
   height="72.638"
   viewBox="0 0 712.78101 72.638"
   enable-background="new 0 0 792 612"
   xml:space="preserve"
   id="svg1080"><metadata
   id="metadata1086"><rdf:RDF><cc:Work
       rdf:about=""><dc:format>image/svg+xml</dc:format><dc:type
         rdf:resource="http://purl.org/dc/dcmitype/StillImage" /><dc:title></dc:title></cc:Work></rdf:RDF></metadata><defs
   id="defs1084" />

<g
   transform="translate(-37.332,-264.897)"
   id="Cross_Wide">
	<g
   id="g1077">
		<g
   id="g1055">
			<g
   id="g1053">
				<path
   stroke-miterlimit="10"
   d="m 191.983,328.193 c -5.238,0 -9.533,-0.314 -12.885,-0.942 -3.353,-0.629 -5.984,-1.808 -7.896,-3.536 -1.913,-1.729 -3.235,-4.085 -3.967,-7.07 -0.734,-2.986 -1.1,-6.836 -1.1,-11.55 v -6.6 c 0,-5.08 0.354,-9.244 1.061,-12.492 0.707,-3.247 2.016,-5.801 3.928,-7.661 1.912,-1.858 4.569,-3.143 7.975,-3.85 3.404,-0.707 7.778,-1.061 13.121,-1.061 h 11.549 c 5.604,0 10.187,0.367 13.749,1.1 3.562,0.734 6.351,2.03 8.367,3.889 2.016,1.86 3.404,4.4 4.164,7.621 0.759,3.221 1.139,7.294 1.139,12.217 v 6.6 c 0,5.028 -0.38,9.074 -1.139,12.139 -0.76,3.063 -2.161,5.421 -4.203,7.07 -2.043,1.65 -4.859,2.75 -8.446,3.3 -3.588,0.55 -8.21,0.825 -13.867,0.825 h -11.55 z m 1.414,-42.425 c -3.091,0 -5.566,0.17 -7.425,0.511 -1.86,0.341 -3.274,0.982 -4.243,1.925 -0.97,0.943 -1.61,2.252 -1.925,3.928 -0.314,1.677 -0.471,3.877 -0.471,6.6 v 5.657 c 0,2.462 0.157,4.452 0.471,5.971 0.314,1.521 0.943,2.711 1.886,3.575 0.943,0.864 2.304,1.453 4.085,1.768 1.78,0.314 4.164,0.472 7.149,0.472 h 10.371 c 3.194,0 5.761,-0.13 7.7,-0.393 1.937,-0.262 3.43,-0.825 4.479,-1.689 1.047,-0.864 1.741,-2.082 2.082,-3.653 0.34,-1.571 0.511,-3.666 0.511,-6.286 v -5.657 c 0,-2.723 -0.17,-4.922 -0.511,-6.6 -0.341,-1.675 -1.035,-2.972 -2.082,-3.889 -1.049,-0.916 -2.554,-1.519 -4.518,-1.807 -1.964,-0.287 -4.596,-0.432 -7.896,-0.432 h -9.663 z"
   id="path1037"
   style="fill:#69c7b9;stroke:none;stroke-miterlimit:10" />
				<path
   stroke-miterlimit="10"
   d="m 284.612,274.611 c 2.514,0.628 4.583,1.637 6.207,3.024 1.623,1.389 2.802,3.196 3.536,5.421 0.733,2.227 1.1,4.91 1.1,8.053 v 3.771 c 0,3.143 -0.328,5.801 -0.982,7.974 -0.655,2.174 -1.728,3.942 -3.221,5.304 -1.493,1.362 -3.457,2.345 -5.892,2.946 -2.436,0.603 -5.409,0.903 -8.917,0.903 h -24.198 v 16.185 h -13.042 v -54.525 h 36.376 c 3.506,0.001 6.519,0.315 9.033,0.944 z m -2.2,17.756 c 0,-2.147 -0.472,-3.626 -1.415,-4.439 -0.942,-0.812 -2.646,-1.218 -5.106,-1.218 h -23.648 v 12.256 h 23.962 c 2.304,0 3.915,-0.405 4.832,-1.218 0.916,-0.812 1.375,-2.239 1.375,-4.282 z"
   id="path1039"
   style="fill:#69c7b9;stroke:none;stroke-miterlimit:10" />
				<path
   stroke-miterlimit="10"
   d="m 358.699,273.668 v 10.842 h -42.74 v 10.057 h 41.404 v 10.921 h -41.404 v 11.785 h 42.74 v 10.921 h -55.782 v -54.525 h 55.782 z"
   id="path1041"
   style="fill:#69c7b9;stroke:none;stroke-miterlimit:10" />
				<path
   stroke-miterlimit="10"
   d="m 387.768,273.668 31.976,37.319 v -37.319 h 13.121 v 54.525 H 417.23 l -35.905,-40.776 v 40.776 h -13.042 v -54.525 z"
   id="path1043"
   style="fill:#69c7b9;stroke:none;stroke-miterlimit:10" />
				<path
   stroke-miterlimit="10"
   d="m 476.783,292.367 18.855,-18.699 h 15.479 l -24.748,25.691 28.754,28.834 h -16.498 l -21.842,-21.527 -21.92,21.527 h -16.578 l 28.912,-28.834 -24.904,-25.691 h 15.635 z"
   id="path1045"
   style="fill:#69c7b9;stroke:none;stroke-miterlimit:10" />
				<path
   stroke-miterlimit="10"
   d="m 532.055,327.251 c -3.275,-0.681 -5.867,-1.886 -7.779,-3.614 -1.912,-1.728 -3.26,-4.072 -4.045,-7.032 -0.787,-2.958 -1.18,-6.69 -1.18,-11.195 v -6.914 c 0,-5.342 0.406,-9.637 1.219,-12.885 0.811,-3.247 2.199,-5.748 4.164,-7.503 1.963,-1.754 4.607,-2.933 7.934,-3.536 3.326,-0.602 7.529,-0.903 12.611,-0.903 h 11.627 c 5.344,0 9.742,0.249 13.199,0.746 3.457,0.499 6.18,1.428 8.172,2.789 1.99,1.363 3.377,3.249 4.164,5.657 0.785,2.41 1.178,5.527 1.178,9.35 h -13.514 c 0,-1.047 -0.145,-1.977 -0.432,-2.789 -0.289,-0.812 -0.904,-1.493 -1.846,-2.043 -0.943,-0.55 -2.332,-0.955 -4.164,-1.218 -1.834,-0.261 -4.297,-0.393 -7.387,-0.393 H 545.92 c -2.934,0 -5.303,0.118 -7.109,0.354 -1.806,0.236 -3.195,0.773 -4.164,1.61 -0.969,0.839 -1.611,2.096 -1.924,3.771 -0.314,1.677 -0.473,3.955 -0.473,6.835 v 5.971 c 0,2.671 0.158,4.792 0.473,6.364 0.313,1.571 0.941,2.789 1.885,3.653 0.944,0.864 2.277,1.428 4.006,1.689 1.729,0.263 4.008,0.393 6.836,0.393 h 10.686 c 2.879,0 5.225,-0.078 7.031,-0.235 1.806,-0.157 3.207,-0.497 4.203,-1.021 0.994,-0.523 1.662,-1.257 2.004,-2.2 0.34,-0.942 0.51,-2.173 0.51,-3.692 h 13.514 c 0,3.614 -0.301,6.639 -0.902,9.074 -0.604,2.436 -1.861,4.388 -3.771,5.854 -1.912,1.467 -4.648,2.514 -8.211,3.143 -3.563,0.629 -8.25,0.942 -14.063,0.942 h -11.943 c -5.029,-0.002 -9.182,-0.341 -12.453,-1.022 z"
   id="path1047"
   style="fill:#69c7b9;stroke:none;stroke-miterlimit:10" />
				<path
   stroke-miterlimit="10"
   d="m 616.314,328.193 c -5.238,0 -9.533,-0.314 -12.885,-0.942 -3.352,-0.629 -5.984,-1.808 -7.895,-3.536 -1.914,-1.729 -3.236,-4.085 -3.969,-7.07 -0.734,-2.986 -1.1,-6.836 -1.1,-11.55 v -6.6 c 0,-5.08 0.354,-9.244 1.061,-12.492 0.707,-3.247 2.016,-5.801 3.928,-7.661 1.912,-1.858 4.57,-3.143 7.975,-3.85 3.405,-0.707 7.779,-1.061 13.121,-1.061 h 11.55 c 5.604,0 10.188,0.367 13.75,1.1 3.561,0.734 6.35,2.03 8.367,3.889 2.016,1.86 3.404,4.4 4.164,7.621 0.758,3.221 1.139,7.294 1.139,12.217 v 6.6 c 0,5.028 -0.381,9.074 -1.139,12.139 -0.76,3.063 -2.16,5.421 -4.203,7.07 -2.043,1.65 -4.859,2.75 -8.447,3.3 -3.588,0.55 -8.209,0.825 -13.865,0.825 h -11.552 z m 1.415,-42.425 c -3.09,0 -5.564,0.17 -7.424,0.511 -1.859,0.341 -3.273,0.982 -4.242,1.925 -0.971,0.943 -1.611,2.252 -1.926,3.928 -0.314,1.677 -0.471,3.877 -0.471,6.6 v 5.657 c 0,2.462 0.156,4.452 0.471,5.971 0.314,1.521 0.943,2.711 1.887,3.575 0.941,0.864 2.303,1.453 4.084,1.768 1.781,0.315 4.164,0.472 7.15,0.472 h 10.371 c 3.193,0 5.762,-0.13 7.699,-0.393 1.938,-0.262 3.43,-0.825 4.479,-1.689 1.047,-0.864 1.74,-2.082 2.082,-3.653 0.34,-1.571 0.51,-3.666 0.51,-6.286 v -5.657 c 0,-2.723 -0.17,-4.922 -0.51,-6.6 -0.342,-1.675 -1.035,-2.972 -2.082,-3.889 -1.049,-0.916 -2.553,-1.519 -4.518,-1.807 -1.965,-0.287 -4.596,-0.432 -7.896,-0.432 h -9.664 z"
   id="path1049"
   style="fill:#69c7b9;stroke:none;stroke-miterlimit:10" />
				<path
   stroke-miterlimit="10"
   d="m 684.824,273.668 22.471,40.147 23.254,-40.147 h 19.564 v 54.525 h -13.121 v -40.069 l -22.627,40.069 h -14.143 l -22.549,-40.069 v 40.069 h -13.041 v -54.525 z"
   id="path1051"
   style="fill:#69c7b9;stroke:none;stroke-miterlimit:10" />
			</g>
		</g>
		<g
   id="g1067">
			<g
   id="g1065">
				<path
   stroke-miterlimit="10"
   d="m 116.052,283.9 18.307,-19.002 H 113.74 l -8.474,8.403 c 4.432,2.6 8.198,6.215 10.786,10.599 z"
   id="path1057"
   style="fill:#69c7b9;stroke:none;stroke-width:0.5;stroke-miterlimit:10" />
				<path
   stroke-miterlimit="10"
   d="m 71.943,273.272 -8.444,-8.375 H 42.67 l 18.462,19.042 c 2.63,-4.41 6.389,-8.052 10.811,-10.667 z"
   id="path1059"
   style="fill:#69c7b9;stroke:none;stroke-width:0.5;stroke-miterlimit:10" />
				<path
   stroke-miterlimit="10"
   d="m 116.656,314.434 c -3.146,4.528 -6.443,8.786 -9.838,12.361 l 10.897,10.74 h 21.979 z"
   id="path1061"
   style="fill:#69c7b9;stroke:none;stroke-width:0.5;stroke-miterlimit:10" />
				<path
   stroke-miterlimit="10"
   d="m 60.594,314.336 -23.262,23.199 h 22.084 l 11.029,-10.83 c -3.447,-3.642 -6.767,-7.934 -9.851,-12.369 z"
   id="path1063"
   style="fill:#69c7b9;stroke:none;stroke-width:0.5;stroke-miterlimit:10" />
			</g>
		</g>
		<path
   stroke-miterlimit="10"
   d="m 62.435,295.789 c 1.699,-12.849 13.415,-21.813 26.069,-21.804 12.658,-0.009 24.729,8.896 26.072,21.803 0.485,4.681 1.526,10.521 -1.629,15.172 -7.41,10.918 -15.876,20.323 -24.443,20.21 -8.367,0.124 -17.091,-9.776 -24.181,-20.21 -3.326,-4.894 -2.457,-10.83 -1.888,-15.171 z"
   id="path1069"
   style="fill:#69c7b9;stroke:none;stroke-width:0.5;stroke-miterlimit:10" />
		<path
   style="stroke:#000000;stroke-width:0.5;stroke-linejoin:round;stroke-miterlimit:10"
   stroke-miterlimit="10"
   d="m 78.653,301.199 c -1.101,-1.499 -2.377,-2.858 -3.425,-3.579 -2.706,-1.854 -6.867,-1.525 -8.134,0.318 -1.264,1.84 -0.072,5.842 2.629,7.7 0.832,0.573 2.097,1.136 3.483,1.586 3.165,1.401 7.484,2.404 8.483,1.198 0.959,-1.158 -0.933,-4.668 -3.036,-7.223 z"
   id="path1071" />
		<path
   style="stroke:#000000;stroke-width:0.5;stroke-linejoin:round;stroke-miterlimit:10"
   stroke-miterlimit="10"
   d="m 109.986,297.938 c -1.267,-1.843 -5.426,-2.172 -8.135,-0.318 -1.048,0.72 -2.323,2.08 -3.423,3.579 -2.104,2.556 -3.994,6.065 -3.039,7.224 0.998,1.206 5.32,0.203 8.484,-1.198 1.385,-0.45 2.65,-1.013 3.483,-1.586 2.703,-1.859 3.893,-5.861 2.63,-7.701 z"
   id="path1073" />
		<line
   style="opacity:0.05;fill:none;stroke:#000000;stroke-miterlimit:10"
   stroke-miterlimit="10"
   x1="150.39799"
   y1="274.23999"
   x2="150.39799"
   y2="328.194"
   id="line1075" />
	</g>
</g>
</svg>