<svg width="270px" height="120px" viewBox="0 0 270 120" xmlns="http://www.w3.org/2000/svg" xmlns:xlink="http://www.w3.org/1999/xlink">
  <defs/>
  <g>
    <path stroke="none" fill="#64ccbc" d="M245.2 73.8 L245.2 99.7 234.85 99.7 234.85 76.8 Q234.85 75.65 234.65 75.25 L233.45 74 230.4 71.3 223 77.9 221.8 79.4 Q221.65 79.8 221.65 81 L221.65 99.7 211.4 99.7 211.4 81 Q211.4 79.05 209.95 77.8 L202.75 71.25 199.65 73.85 198.4 75.2 Q198.15 75.45 198.15 76.6 L198.15 99.7 187.95 99.7 187.95 74 Q187.95 72.2 189 71.2 L193.8 66.9 196.15 65.25 199.55 65.05 205.4 65.05 208.95 65.3 Q209.75 65.6 211.35 67.05 L216.65 72.1 221.85 67.25 Q223.6 65.6 224.6 65.25 L228.55 65.05 233.6 65.05 237 65.25 Q237.75 65.6 239.35 67 L243.2 70.3 Q245.2 72.1 245.2 73.8 M233.55 39.4 L233.55 0.65 245.2 0.65 245.2 58.05 233 58.1 Q231.55 58.1 230.15 56.6 229.05 55.4 227.25 52.5 L202.45 12.35 199.6 12.35 199.6 58.1 187.95 58.1 187.95 6.75 Q187.95 2.8 189.45 1.65 190.65 0.65 194.6 0.65 L203.65 0.65 Q207.65 0.65 209.15 1.45 210.65 2.25 212.85 5.85 L233.55 39.4 M179.8 35 L136.9 35 136.9 46.4 179.55 46.4 179.55 58.05 125.4 58.05 125.4 14.95 Q125.4 8.95 129.55 4.8 133.7 0.65 139.7 0.65 L180 0.65 180 12.2 139.7 12.2 Q136.9 12.2 136.9 14.95 L136.9 23.4 179.8 23.4 179.8 35 M166.35 72 L139 72 Q136.4 72 136.4 73.65 L136.4 90.9 Q136.4 92.6 139 92.6 L166.35 92.6 Q168.95 92.6 168.95 90.9 L168.95 73.65 Q168.95 72 166.35 72 M180 73.65 L180 90.9 Q180 94.5 176 97.05 171.95 99.6 166.35 99.6 L139 99.6 Q133.35 99.6 129.35 97.05 125.4 94.5 125.4 90.9 L125.4 73.65 Q125.4 70.05 129.35 67.6 133.35 65.05 139 65.05 L166.35 65.05 Q171.95 65.05 176 67.65 180 70.1 180 73.65 M117.5 15.55 L117.5 25.65 Q117.5 31.95 113.1 36.4 108.7 40.85 102.35 40.85 L71.8 40.85 71.8 58.05 60.15 58.05 60.15 0.4 102.35 0.4 Q108.7 0.4 113.1 4.8 117.5 9.2 117.5 15.55 M102.35 12.05 L71.8 12.05 71.8 29.2 102.35 29.2 Q105.95 29.2 105.95 25.65 L105.95 15.55 Q105.95 12.05 102.35 12.05 M52.05 23 L52.1 23 Q52.65 30.15 50.65 37 40.1 57.9 26.3 58.05 12.5 57.9 2.05 37 0.05 30.15 0.55 23 L0.65 23 0.55 22.85 0.7 21.4 Q1.1 17.25 2.35 12.95 6.1 0.4 26.3 0.4 46.5 0.4 50.3 12.95 51.55 17.25 51.95 21.4 L52.1 22.85 52.05 23 Q37.5 21.25 34.45 32.95 49.05 34.75 52.05 23 M117.5 65 L117.5 72 74.55 72 Q71.8 72 71.8 73.65 L71.8 90.85 Q71.8 92.5 74.55 92.5 L117.5 92.5 117.5 99.5 74.55 99.5 Q68.55 99.5 64.35 97 60.15 94.45 60.15 90.85 L60.15 73.65 Q60.15 70.05 64.35 67.5 68.55 65 74.55 65 L117.5 65 M0.65 23 Q3.65 34.75 18.25 32.95 15.15 21.25 0.65 23 M36.25 71.1 Q32.5 68.3 36.35 65.05 43.25 64.5 43.85 68.8 L50.1 69 51.15 69.9 51.5 70.4 Q51.9 71 52.15 72.45 52.45 74 50.45 75.65 48.35 77.25 43.95 74.65 L37.15 79.65 37.05 79.7 35.95 80.5 Q34.5 81.6 34.5 82.2 L34.5 82.3 34.7 82.7 Q35.25 83.5 37.1 84.8 L44.05 89.85 Q48.45 87.2 50.5 88.85 52.5 90.5 52.25 92 51.95 93.5 51.5 94.1 L51.25 94.5 50.15 95.5 43.85 95.65 Q43.3 100 36.45 99.45 32.55 96.1 36.3 93.3 L36.3 93.05 26.35 86.6 16.45 93.05 16.45 93.3 Q20.15 96.1 16.3 99.45 9.45 100 8.9 95.65 L2.55 95.5 1.5 94.5 1.25 94.1 Q0.75 93.5 0.5 92 0.25 90.5 2.25 88.85 4.3 87.2 8.7 89.85 L15.55 84.8 15.65 84.8 Q18.25 83.05 18.25 82.3 L18.05 81.8 Q17.5 81 15.55 79.7 L8.65 74.65 Q4.25 77.25 2.15 75.65 0.15 74 0.5 72.45 0.7 71 1.15 70.4 L1.45 69.9 Q1.9 69.4 2.5 69 L8.85 68.8 Q9.35 64.5 16.25 65.05 20.1 68.3 16.35 71.1 L16.35 71.45 26.3 77.85 36.25 71.45 36.25 71.1"/>
    <path stroke="none" fill="#254c47" d="M52.05 23 Q49.05 34.75 34.45 32.95 37.5 21.25 52.05 23 M0.65 23 Q15.15 21.25 18.25 32.95 3.65 34.75 0.65 23"/>
    <path fill="none" stroke="#254c47" stroke-width="2.5" stroke-linecap="round" stroke-linejoin="round" d="M245.2 73.8 L245.2 99.7 234.85 99.7 234.85 76.8 Q234.85 75.65 234.65 75.25 L233.45 74 230.4 71.3 223 77.9 221.8 79.4 Q221.65 79.8 221.65 81 L221.65 99.7 211.4 99.7 211.4 81 Q211.4 79.05 209.95 77.8 L202.75 71.25 199.65 73.85 198.4 75.2 Q198.15 75.45 198.15 76.6 L198.15 99.7 187.95 99.7 187.95 74 Q187.95 72.2 189 71.2 L193.8 66.9 196.15 65.25 199.55 65.05 205.4 65.05 208.95 65.3 Q209.75 65.6 211.35 67.05 L216.65 72.1 221.85 67.25 Q223.6 65.6 224.6 65.25 L228.55 65.05 233.6 65.05 237 65.25 Q237.75 65.6 239.35 67 L243.2 70.3 Q245.2 72.1 245.2 73.8 M233.55 39.4 L233.55 0.65 245.2 0.65 245.2 58.05 233 58.1 Q231.55 58.1 230.15 56.6 229.05 55.4 227.25 52.5 L202.45 12.35 199.6 12.35 199.6 58.1 187.95 58.1 187.95 6.75 Q187.95 2.8 189.45 1.65 190.65 0.65 194.6 0.65 L203.65 0.65 Q207.65 0.65 209.15 1.45 210.65 2.25 212.85 5.85 L233.55 39.4 M179.8 35 L136.9 35 136.9 46.4 179.55 46.4 179.55 58.05 125.4 58.05 125.4 14.95 Q125.4 8.95 129.55 4.8 133.7 0.65 139.7 0.65 L180 0.65 180 12.2 139.7 12.2 Q136.9 12.2 136.9 14.95 L136.9 23.4 179.8 23.4 179.8 35 M166.35 72 L139 72 Q136.4 72 136.4 73.65 L136.4 90.9 Q136.4 92.6 139 92.6 L166.35 92.6 Q168.95 92.6 168.95 90.9 L168.95 73.65 Q168.95 72 166.35 72 M180 73.65 L180 90.9 Q180 94.5 176 97.05 171.95 99.6 166.35 99.6 L139 99.6 Q133.35 99.6 129.35 97.05 125.4 94.5 125.4 90.9 L125.4 73.65 Q125.4 70.05 129.35 67.6 133.35 65.05 139 65.05 L166.35 65.05 Q171.95 65.05 176 67.65 180 70.1 180 73.65 M117.5 15.55 L117.5 25.65 Q117.5 31.95 113.1 36.4 108.7 40.85 102.35 40.85 L71.8 40.85 71.8 58.05 60.15 58.05 60.15 0.4 102.35 0.4 Q108.7 0.4 113.1 4.8 117.5 9.2 117.5 15.55 M102.35 12.05 L71.8 12.05 71.8 29.2 102.35 29.2 Q105.95 29.2 105.95 25.65 L105.95 15.55 Q105.95 12.05 102.35 12.05 M117.5 65 L74.55 65 Q68.55 65 64.35 67.5 60.15 70.05 60.15 73.65 L60.15 90.85 Q60.15 94.45 64.35 97 68.55 99.5 74.55 99.5 L117.5 99.5 117.5 92.5 74.55 92.5 Q71.8 92.5 71.8 90.85 L71.8 73.65 Q71.8 72 74.55 72 L117.5 72 117.5 65 M0.65 23 L0.55 23 Q0.05 30.15 2.05 37 12.5 57.9 26.3 58.05 40.1 57.9 50.65 37 52.65 30.15 52.1 23 L52.05 23 Q49.05 34.75 34.45 32.95 37.5 21.25 52.05 23 L52.1 22.85 51.95 21.4 Q51.55 17.25 50.3 12.95 46.5 0.4 26.3 0.4 6.1 0.4 2.35 12.95 1.1 17.25 0.7 21.4 L0.55 22.85 0.65 23 Q15.15 21.25 18.25 32.95 3.65 34.75 0.65 23 M36.25 71.1 L36.25 71.45 26.3 77.85 16.35 71.45 16.35 71.1 Q20.1 68.3 16.25 65.05 9.35 64.5 8.85 68.8 L2.5 69 Q1.9 69.4 1.45 69.9 L1.15 70.4 Q0.7 71 0.5 72.45 0.15 74 2.15 75.65 4.25 77.25 8.65 74.65 L15.55 79.7 Q17.5 81 18.05 81.8 L18.25 82.3 Q18.25 83.05 15.65 84.8 L15.55 84.8 8.7 89.85 Q4.3 87.2 2.25 88.85 0.25 90.5 0.5 92 0.75 93.5 1.25 94.1 L1.5 94.5 2.55 95.5 8.9 95.65 Q9.45 100 16.3 99.45 20.15 96.1 16.45 93.3 L16.45 93.05 26.35 86.6 36.3 93.05 36.3 93.3 Q32.55 96.1 36.45 99.45 43.3 100 43.85 95.65 L50.15 95.5 51.25 94.5 51.5 94.1 Q51.95 93.5 52.25 92 52.5 90.5 50.5 88.85 48.45 87.2 44.05 89.85 L37.1 84.8 Q35.25 83.5 34.7 82.7 L34.5 82.3 34.5 82.2 Q34.5 81.6 35.95 80.5 L37.05 79.7 37.15 79.65 43.95 74.65 Q48.35 77.25 50.45 75.65 52.45 74 52.15 72.45 51.9 71 51.5 70.4 L51.15 69.9 50.1 69 43.85 68.8 Q43.25 64.5 36.35 65.05 32.5 68.3 36.25 71.1"/>
  </g>
</svg>