<?xml version="1.0" encoding="UTF-8" standalone="no"?>
<svg
   xmlns:dc="http://purl.org/dc/elements/1.1/"
   xmlns:cc="http://creativecommons.org/ns#"
   xmlns:rdf="http://www.w3.org/1999/02/22-rdf-syntax-ns#"
   xmlns:svg="http://www.w3.org/2000/svg"
   xmlns="http://www.w3.org/2000/svg"
   version="1.1"
   x="0px"
   y="0px"
   width="295.80899"
   height="348.729"
   viewBox="0 0 295.80899 348.729"
   enable-background="new 0 0 792 612"
   xml:space="preserve"
   id="svg44"><metadata
   id="metadata50"><rdf:RDF><cc:Work
       rdf:about=""><dc:format>image/svg+xml</dc:format><dc:type
         rdf:resource="http://purl.org/dc/dcmitype/StillImage" /><dc:title></dc:title></cc:Work></rdf:RDF></metadata><defs
   id="defs48" />

<g
   transform="translate(-244.404,-123.381)"
   id="Cross_Rectangle">
	<g
   id="g23">
		<g
   id="g15">
			<g
   id="g13">
				<path
   stroke-miterlimit="10"
   d="m 472.219,176.715 51.379,-53.334 h -57.871 l -23.78,23.582 c 12.439,7.301 23.009,17.446 30.272,29.752 z"
   id="path5"
   style="fill:#69c7b9;stroke:none;stroke-width:0.75;stroke-miterlimit:10" />
				<path
   stroke-miterlimit="10"
   d="m 348.427,146.885 -23.702,-23.504 h -58.458 l 51.813,53.446 c 7.378,-12.381 17.932,-22.603 30.347,-29.942 z"
   id="path7"
   style="fill:#69c7b9;stroke:none;stroke-width:0.75;stroke-miterlimit:10" />
				<path
   stroke-miterlimit="10"
   d="m 473.913,262.405 c -8.827,12.713 -18.079,24.66 -27.611,34.694 l 30.587,30.146 h 61.689 z"
   id="path9"
   style="fill:#69c7b9;stroke:none;stroke-width:0.75;stroke-miterlimit:10" />
				<path
   stroke-miterlimit="10"
   d="m 316.576,262.133 -65.291,65.113 h 61.983 l 30.951,-30.398 c -9.678,-10.219 -18.994,-22.271 -27.643,-34.715 z"
   id="path11"
   style="fill:#69c7b9;stroke:none;stroke-width:0.75;stroke-miterlimit:10" />
			</g>
		</g>
		<path
   stroke-miterlimit="10"
   d="m 321.736,210.081 c 4.772,-36.062 37.657,-61.223 73.17,-61.196 35.521,-0.026 69.404,24.967 73.173,61.192 1.357,13.134 4.28,29.524 -4.573,42.577 -20.795,30.648 -44.557,57.04 -68.6,56.722 -23.485,0.346 -47.969,-27.439 -67.868,-56.719 -9.336,-13.731 -6.895,-30.389 -5.302,-42.576 z"
   id="path17"
   style="fill:#69c7b9;stroke:none;stroke-width:0.75;stroke-miterlimit:10" />
		<path
   d="m 364.449,225.262 c -3.089,-4.206 -6.671,-8.021 -9.612,-10.04 -7.597,-5.205 -19.272,-4.282 -22.826,0.89 -3.545,5.166 -0.205,16.396 7.376,21.611 2.34,1.608 5.89,3.189 9.78,4.457 8.877,3.928 21.006,6.745 23.806,3.358 2.686,-3.253 -2.619,-13.102 -8.524,-20.276 z"
   id="path19" />
		<path
   d="m 458,216.111 c -3.553,-5.172 -15.229,-6.095 -22.827,-0.89 -2.941,2.02 -6.522,5.834 -9.609,10.04 -5.907,7.174 -11.211,17.023 -8.524,20.276 2.798,3.387 14.929,0.569 23.806,-3.358 3.889,-1.268 7.439,-2.849 9.779,-4.457 7.58,-5.214 10.921,-16.445 7.375,-21.611 z"
   id="path21" />
	</g>
	<g
   id="g41">
		<path
   stroke-miterlimit="10"
   d="m 275.708,403.311 c -5.61,0 -10.211,-0.337 -13.801,-1.01 -3.591,-0.673 -6.41,-1.936 -8.457,-3.787 -2.049,-1.851 -3.465,-4.376 -4.25,-7.573 -0.786,-3.198 -1.178,-7.321 -1.178,-12.37 v -7.069 c 0,-5.44 0.378,-9.9 1.136,-13.38 0.757,-3.478 2.159,-6.213 4.208,-8.204 2.047,-1.991 4.894,-3.366 8.542,-4.124 3.646,-0.757 8.331,-1.136 14.053,-1.136 h 12.37 c 6.002,0 10.911,0.394 14.727,1.178 3.814,0.787 6.802,2.175 8.962,4.166 2.159,1.992 3.646,4.712 4.46,8.162 0.813,3.45 1.22,7.813 1.22,13.086 v 7.068 c 0,5.386 -0.408,9.72 -1.22,13.002 -0.814,3.281 -2.314,5.806 -4.502,7.573 -2.188,1.767 -5.204,2.945 -9.046,3.534 -3.844,0.589 -8.794,0.884 -14.853,0.884 z m 1.515,-45.442 c -3.311,0 -5.961,0.183 -7.952,0.547 -1.992,0.365 -3.507,1.052 -4.544,2.062 -1.039,1.01 -1.725,2.413 -2.062,4.208 -0.336,1.796 -0.505,4.152 -0.505,7.068 v 6.059 c 0,2.638 0.168,4.77 0.505,6.396 0.336,1.628 1.01,2.903 2.02,3.829 1.01,0.926 2.468,1.557 4.376,1.894 1.907,0.337 4.46,0.505 7.658,0.505 h 11.108 c 3.421,0 6.171,-0.14 8.247,-0.421 2.075,-0.28 3.674,-0.884 4.796,-1.81 1.122,-0.926 1.865,-2.229 2.23,-3.913 0.364,-1.683 0.547,-3.926 0.547,-6.731 v -6.06 c 0,-2.916 -0.183,-5.272 -0.547,-7.068 -0.365,-1.795 -1.108,-3.184 -2.23,-4.165 -1.123,-0.981 -2.735,-1.627 -4.838,-1.936 -2.104,-0.308 -4.923,-0.463 -8.458,-0.463 h -10.351 z"
   id="path25"
   style="fill:#69c7b9;stroke:none;stroke-width:0.5;stroke-miterlimit:10" />
		<path
   stroke-miterlimit="10"
   d="m 376.94,345.92 c 2.693,0.673 4.908,1.754 6.648,3.239 1.738,1.487 3,3.423 3.787,5.807 0.785,2.385 1.178,5.26 1.178,8.625 v 4.04 c 0,3.365 -0.351,6.214 -1.052,8.541 -0.702,2.328 -1.852,4.222 -3.45,5.68 -1.599,1.46 -3.703,2.512 -6.312,3.156 -2.608,0.646 -5.793,0.968 -9.551,0.968 H 342.27 v 17.335 H 328.301 V 344.91 h 38.962 c 3.758,-0.001 6.985,0.336 9.677,1.01 z m -2.356,19.018 c 0,-2.3 -0.505,-3.884 -1.515,-4.755 -1.01,-0.869 -2.833,-1.304 -5.47,-1.304 h -25.33 v 13.127 h 25.666 c 2.468,0 4.193,-0.434 5.175,-1.304 0.981,-0.869 1.473,-2.398 1.473,-4.586 v -1.178 z"
   id="path27"
   style="fill:#69c7b9;stroke:none;stroke-width:0.5;stroke-miterlimit:10" />
		<path
   stroke-miterlimit="10"
   d="m 458.313,344.909 v 11.613 h -45.778 v 10.771 h 44.348 v 11.697 h -44.348 v 12.622 h 45.778 v 11.697 h -59.747 v -58.401 h 59.747 z"
   id="path29"
   style="fill:#69c7b9;stroke:none;stroke-width:0.5;stroke-miterlimit:10" />
		<path
   stroke-miterlimit="10"
   d="m 491.469,344.909 34.249,39.973 v -39.973 h 14.054 v 58.401 h -16.746 l -38.457,-43.675 v 43.675 h -13.97 v -58.401 z"
   id="path31"
   style="fill:#69c7b9;stroke:none;stroke-width:0.5;stroke-miterlimit:10" />
		<path
   stroke-miterlimit="10"
   d="m 281.343,437.658 18.092,-17.941 h 14.851 l -23.747,24.651 27.591,27.666 H 302.3 l -20.957,-20.655 -21.033,20.655 h -15.906 l 27.742,-27.666 -23.897,-24.651 h 15.001 z"
   id="path33"
   style="fill:#69c7b9;stroke:none;stroke-width:0.5;stroke-miterlimit:10" />
		<path
   stroke-miterlimit="10"
   d="m 333.245,471.13 c -3.142,-0.653 -5.629,-1.81 -7.463,-3.468 -1.835,-1.659 -3.128,-3.907 -3.882,-6.747 -0.754,-2.839 -1.131,-6.42 -1.131,-10.742 v -6.635 c 0,-5.126 0.389,-9.246 1.168,-12.363 0.779,-3.115 2.111,-5.515 3.996,-7.199 1.885,-1.683 4.422,-2.813 7.614,-3.392 3.191,-0.577 7.224,-0.867 12.1,-0.867 h 11.157 c 5.126,0 9.348,0.239 12.665,0.716 3.317,0.479 5.929,1.37 7.84,2.677 1.91,1.308 3.242,3.116 3.996,5.428 0.754,2.312 1.131,5.303 1.131,8.971 H 369.47 c 0,-1.005 -0.139,-1.896 -0.415,-2.677 -0.277,-0.778 -0.867,-1.432 -1.772,-1.96 -0.904,-0.527 -2.237,-0.916 -3.995,-1.168 -1.76,-0.251 -4.122,-0.377 -7.086,-0.377 h -9.649 c -2.815,0 -5.088,0.113 -6.822,0.339 -1.734,0.227 -3.066,0.742 -3.996,1.546 -0.93,0.805 -1.545,2.011 -1.847,3.618 -0.302,1.609 -0.452,3.795 -0.452,6.559 v 5.729 c 0,2.563 0.15,4.599 0.452,6.106 0.301,1.507 0.905,2.676 1.809,3.505 0.905,0.829 2.187,1.37 3.845,1.621 1.659,0.252 3.845,0.377 6.559,0.377 h 10.252 c 2.763,0 5.013,-0.075 6.747,-0.227 1.734,-0.15 3.078,-0.477 4.033,-0.979 0.954,-0.502 1.595,-1.206 1.922,-2.111 0.326,-0.904 0.49,-2.085 0.49,-3.543 h 12.966 c 0,3.468 -0.29,6.37 -0.867,8.707 -0.579,2.337 -1.785,4.21 -3.619,5.616 -1.835,1.407 -4.461,2.412 -7.878,3.016 -3.418,0.603 -7.916,0.904 -13.494,0.904 h -11.458 c -4.826,-0.001 -8.81,-0.327 -11.95,-0.98 z"
   id="path35"
   style="fill:#69c7b9;stroke:none;stroke-width:0.5;stroke-miterlimit:10" />
		<path
   stroke-miterlimit="10"
   d="m 412.964,472.034 c -5.025,0 -9.147,-0.302 -12.363,-0.904 -3.217,-0.604 -5.742,-1.734 -7.576,-3.393 -1.835,-1.658 -3.104,-3.92 -3.807,-6.785 -0.704,-2.864 -1.055,-6.559 -1.055,-11.081 v -6.333 c 0,-4.874 0.339,-8.869 1.018,-11.986 0.679,-3.115 1.934,-5.565 3.769,-7.35 1.834,-1.783 4.384,-3.016 7.651,-3.694 3.267,-0.678 7.464,-1.018 12.59,-1.018 h 11.082 c 5.377,0 9.773,0.353 13.192,1.056 3.417,0.704 6.093,1.948 8.028,3.731 1.934,1.785 3.267,4.222 3.995,7.313 0.728,3.091 1.094,6.999 1.094,11.723 v 6.332 c 0,4.825 -0.365,8.707 -1.094,11.647 -0.729,2.939 -2.073,5.201 -4.033,6.784 -1.96,1.583 -4.662,2.639 -8.104,3.166 -3.443,0.528 -7.878,0.792 -13.306,0.792 z m 1.357,-40.708 c -2.966,0 -5.341,0.164 -7.124,0.49 -1.784,0.327 -3.142,0.942 -4.07,1.847 -0.931,0.904 -1.546,2.161 -1.848,3.77 -0.302,1.609 -0.452,3.72 -0.452,6.332 v 5.428 c 0,2.363 0.15,4.272 0.452,5.729 0.302,1.458 0.905,2.601 1.81,3.43 0.905,0.829 2.211,1.395 3.92,1.696 1.708,0.302 3.995,0.452 6.86,0.452 h 9.95 c 3.065,0 5.528,-0.125 7.389,-0.377 1.858,-0.251 3.291,-0.791 4.297,-1.62 1.004,-0.83 1.67,-1.998 1.997,-3.506 0.326,-1.508 0.49,-3.518 0.49,-6.031 v -5.428 c 0,-2.612 -0.164,-4.723 -0.49,-6.332 -0.327,-1.607 -0.993,-2.852 -1.997,-3.731 -1.006,-0.879 -2.45,-1.457 -4.335,-1.734 -1.885,-0.275 -4.41,-0.414 -7.576,-0.414 h -9.273 z"
   id="path37"
   style="fill:#69c7b9;stroke:none;stroke-width:0.5;stroke-miterlimit:10" />
		<path
   stroke-miterlimit="10"
   d="m 477.568,419.717 21.561,38.521 22.313,-38.521 h 18.771 v 52.317 h -12.59 v -38.446 l -21.711,38.446 h -13.569 l -21.636,-38.446 v 38.446 h -12.514 v -52.317 z"
   id="path39"
   style="fill:#69c7b9;stroke:none;stroke-width:0.5;stroke-miterlimit:10" />
	</g>
</g>
</svg>