<?xml version="1.0" encoding="UTF-8" standalone="no"?>
<svg
   width="289.70001"
   height="289.70001"
   version="1.1"
   id="svg7"
   sodipodi:docname="openxcom.svg"
   inkscape:version="1.4.3 (0d15f75042, 2025-12-25)"
   xmlns:inkscape="http://www.inkscape.org/namespaces/inkscape"
   xmlns:sodipodi="http://sodipodi.sourceforge.net/DTD/sodipodi-0.dtd"
   xmlns="http://www.w3.org/2000/svg"
   xmlns:svg="http://www.w3.org/2000/svg">
  <defs
     id="defs7" />
  <sodipodi:namedview
     id="namedview7"
     pagecolor="#ffffff"
     bordercolor="#666666"
     borderopacity="1.0"
     inkscape:showpageshadow="2"
     inkscape:pageopacity="0.0"
     inkscape:pagecheckerboard="0"
     inkscape:deskcolor="#d1d1d1"
     inkscape:zoom="4.0037286"
     inkscape:cx="76.428756"
     inkscape:cy="125.63289"
     inkscape:window-width="3440"
     inkscape:window-height="1371"
     inkscape:window-x="0"
     inkscape:window-y="0"
     inkscape:window-maximized="1"
     inkscape:current-layer="svg7" />
  <g
     transform="translate(-250.08,-80.459494)"
     id="g7">
    <g
       fill="#69c7b9"
       stroke="#000000"
       stroke-miterlimit="10"
       id="g4">
      <path
         d="m 472.22,176.72 51.379,-53.334 h -57.871 l -23.78,23.582 c 12.439,7.301 23.009,17.446 30.272,29.752 z"
         id="path1" />
      <path
         d="M 348.43,146.88 324.728,123.376 H 266.27 l 51.813,53.446 c 7.378,-12.381 17.932,-22.603 30.347,-29.942 z"
         id="path2" />
      <path
         d="m 473.91,262.4 c -8.827,12.713 -18.079,24.66 -27.611,34.694 l 30.587,30.146 h 61.689 z"
         id="path3" />
      <path
         d="m 316.58,262.13 -65.291,65.113 h 61.983 l 30.951,-30.398 C 334.545,286.626 325.229,274.574 316.58,262.13 Z"
         id="path4" />
    </g>
    <path
       d="m 321.74,210.08 c 4.772,-36.062 37.657,-61.223 73.17,-61.196 35.521,-0.026 69.404,24.967 73.173,61.192 1.357,13.134 4.28,29.524 -4.573,42.577 -20.795,30.648 -44.557,57.04 -68.6,56.722 -23.485,0.346 -47.969,-27.439 -67.868,-56.719 -9.336,-13.731 -6.895,-30.389 -5.302,-42.576 z"
       fill="#69c7b9"
       stroke="#000000"
       stroke-miterlimit="10"
       id="path5" />
    <path
       d="m 364.45,225.26 c -3.089,-4.206 -6.671,-8.021 -9.612,-10.04 -7.597,-5.205 -19.272,-4.282 -22.826,0.89 -3.545,5.166 -0.205,16.396 7.376,21.611 2.34,1.608 5.89,3.189 9.78,4.457 8.877,3.928 21.006,6.745 23.806,3.358 2.686,-3.253 -2.619,-13.102 -8.524,-20.276 z"
       id="path6" />
    <path
       d="m 458,216.11 c -3.553,-5.172 -15.229,-6.095 -22.827,-0.89 -2.941,2.02 -6.522,5.834 -9.609,10.04 -5.907,7.174 -11.211,17.023 -8.524,20.276 2.798,3.387 14.929,0.569 23.806,-3.358 3.889,-1.268 7.439,-2.849 9.779,-4.457 7.58,-5.214 10.921,-16.445 7.375,-21.611 z"
       id="path7" />
  </g>
</svg>
