<?xml version="1.0"?>
<svg width="95" height="95" xmlns="http://www.w3.org/2000/svg" xmlns:svg="http://www.w3.org/2000/svg">
  <defs/>
  <filter id="drop-shadow"> 
    <feGaussianBlur in="SourceAlpha" stdDeviation="2" result="blur"/>
    <feOffset in="blur" dx="1" dy="1" result="offsetBlur"/>
    <feMerge>
        <feMergeNode in="offsetBlur"/>
        <feMergeNode in="SourceGraphic"/>
    </feMerge>
  </filter>

 <g>
  <title>Layer 1</title>
  <g id="svg_1" style="filter: url(#drop-shadow);">
   <path id="svg_2" d="m57.499546,70.911911l0,0.150002l0.200001,0.400002l2.899998,2.349998l8.550007,5.550003q5.399994,-2.950005 7.849991,-1.099998q2.5,1.799995 2.150009,3.449997q-0.400002,1.650002 -0.949997,2.300003l-0.25,0.449997l-1.400009,1.099998q-2.449997,1.200005 -7.699997,0.150002q-0.649994,4.800003 -9.000004,4.199997q-4.799999,-3.699997 -0.149998,-6.75l0,-0.299995l-12.150002,-7.099998l-12.099998,7.099998l0,0.299995q4.5,3.050003 -0.25,6.75q-8.35,0.600006 -9,-4.199997q-5.25,1.050003 -7.75,-0.150002l-1.35,-1.099998l-0.25,-0.449997q-0.6,-0.650002 -0.950001,-2.300003q-0.25,-1.650002 2.15,-3.449997q2.550001,-1.850006 7.85,1.099998l8.450003,-5.550003l0.099998,0q3.200001,-1.949997 3.200001,-2.75l-0.299999,-0.549995q-0.650002,-0.900002 -3,-2.350006l-8.500002,-5.549995q-5.4,2.849998 -7.9,1.099998q-2.5,-1.799999 -2.050001,-3.5q0.300001,-1.599998 0.85,-2.25l0.299999,-0.549999l1.35,-1l7.75,-0.200001q0.6,-4.75 9.000002,-4.150002q4.75,3.600002 0.099998,6.650002l0,0.400002l12.150002,7.049995l12.25,-7.049995l0,-0.400002q-4.650002,-3.049999 0.099998,-6.650002q8.400005,-0.599998 9.100002,4.150002l7.649994,0.200001l1.350006,1l0.350006,0.549999q0.499992,0.650002 0.849991,2.25q0.400009,1.700001 -2.099991,3.5q-2.600006,1.75 -7.900009,-1.099998l-8.299999,5.5l-0.200001,0.049995l-1.299999,0.900002q-1.75,1.200005 -1.75,1.849998" fill="#64ccbc"/>
   <path id="svg_3" d="m57.499546,70.911911q0,-0.649994 1.75,-1.849998l1.299999,-0.900002l0.200001,-0.049995l8.299999,-5.5q5.300003,2.849998 7.900009,1.099998q2.5,-1.799999 2.099991,-3.5q-0.349998,-1.599998 -0.849991,-2.25l-0.350006,-0.549999l-1.350006,-1l-7.649994,-0.200001q-0.699997,-4.75 -9.100002,-4.150002q-4.75,3.600002 -0.099998,6.650002l0,0.400002l-12.25,7.049995l-12.150002,-7.049995l0,-0.400002q4.650002,-3.049999 -0.099998,-6.650002q-8.400002,-0.599998 -9.000002,4.150002l-7.75,0.200001l-1.35,1l-0.299999,0.549999q-0.549999,0.650002 -0.85,2.25q-0.449999,1.700001 2.050001,3.5q2.5,1.75 7.9,-1.099998l8.500002,5.549995q2.349998,1.450005 3,2.350006l0.299999,0.549995q0,0.800003 -3.200001,2.75l-0.099998,0l-8.450003,5.550003q-5.299999,-2.950005 -7.85,-1.099998q-2.4,1.799995 -2.15,3.449997q0.35,1.650002 0.950001,2.300003l0.25,0.449997l1.35,1.099998q2.5,1.200005 7.75,0.150002q0.65,4.800003 9,4.199997q4.75,-3.699997 0.25,-6.75l0,-0.299995l12.099998,-7.099998l12.150002,7.099998l0,0.299995q-4.650002,3.050003 0.149998,6.75q8.35001,0.600006 9.000004,-4.199997q5.25,1.050003 7.699997,-0.150002l1.400009,-1.099998l0.25,-0.449997q0.549995,-0.650002 0.949997,-2.300003q0.349991,-1.650002 -2.150009,-3.449997q-2.449997,-1.850006 -7.849991,1.099998l-8.550007,-5.550003l-2.899998,-2.349998l-0.200001,-0.400002l0,-0.150002" stroke-linejoin="round" stroke-linecap="round" stroke-width="2.5" stroke="#254c47" fill="none"/>
   <path id="svg_4" d="m24.249546,22.611914l-0.1,-0.1l0.15,-1.299999q0.35,-3.799999 1.5,-7.7q3.400002,-11.4 21.75,-11.4q18.350006,0 21.800003,11.4q1.100006,3.900001 1.5,7.7l0.100006,1.299999l-0.050003,0.1l0.050003,0q0.5,6.5 -1.300003,12.750002q-9.550007,18.949997 -22.100006,19.099998q-12.549999,-0.150002 -22.049999,-19.099998q-1.800001,-6.250002 -1.35,-12.750002l0.1,0q2.75,10.699999 16,9.050001q-2.799999,-10.6 -16,-9.050001m46.650005,0q-13.150005,-1.549999 -15.950005,9.050001q13.250008,1.649998 15.950005,-9.050001" fill="#64ccbc"/>
   <path id="svg_5" d="m70.899551,22.611914q-2.699997,10.699999 -15.950005,9.050001q2.799999,-10.6 15.950005,-9.050001m-46.650005,0q13.200001,-1.549999 16,9.050001q-13.25,1.649998 -16,-9.050001" fill="#254c47"/>
   <path id="svg_6" d="m70.899551,22.611914l0.050003,-0.1l-0.100006,-1.299999q-0.399994,-3.799999 -1.5,-7.7q-3.449997,-11.4 -21.800003,-11.4q-18.349998,0 -21.75,11.4q-1.15,3.900001 -1.5,7.7l-0.15,1.299999l0.1,0.1q13.200001,-1.549999 16,9.050001q-13.25,1.649998 -16,-9.050001l-0.1,0q-0.450001,6.5 1.35,12.750002q9.5,18.949997 22.049999,19.099998q12.549999,-0.150002 22.100006,-19.099998q1.800003,-6.250002 1.300003,-12.750002l-0.050003,0q-2.699997,10.699999 -15.950005,9.050001q2.799999,-10.6 15.950005,-9.050001" stroke-linejoin="round" stroke-linecap="round" stroke-width="2.5" stroke="#254c47" fill="none"/>
  </g>
 </g>
</svg>