<svg width="70px" height="95px" viewBox="0 0 70 95" xmlns="http://www.w3.org/2000/svg" xmlns:xlink="http://www.w3.org/1999/xlink">
  <defs/>
  <filter id="drop-shadow"> 
    <feGaussianBlur in="SourceAlpha" stdDeviation="2" result="blur"/>
    <feOffset in="blur" dx="1" dy="1" result="offsetBlur"/>
    <feMerge>
        <feMergeNode in="offsetBlur"/>
        <feMergeNode in="SourceGraphic"/>
    </feMerge>
  </filter>
  <g style="filter: url(#drop-shadow);">
    <path stroke="none" fill="#64ccbc" d="M38.75 70.2 L38.75 70.35 38.95 70.75 41.85 73.1 50.4 78.65 Q55.8 75.7 58.25 77.55 60.75 79.35 60.4 81 60 82.65 59.45 83.3 L59.2 83.75 57.8 84.85 Q55.35 86.05 50.1 85 49.45 89.8 41.1 89.2 36.3 85.5 40.95 82.45 L40.95 82.15 28.8 75.05 16.7 82.15 16.7 82.45 Q21.2 85.5 16.45 89.2 8.1 89.8 7.45 85 2.2 86.05 -0.3 84.85 L-1.65 83.75 -1.9 83.3 Q-2.5 82.65 -2.85 81 -3.1 79.35 -0.7 77.55 1.85 75.7 7.15 78.65 L15.6 73.1 15.7 73.1 Q18.9 71.15 18.9 70.35 L18.6 69.8 Q17.95 68.9 15.6 67.45 L7.1 61.9 Q1.7 64.75 -0.8 63 -3.3 61.2 -2.85 59.5 -2.55 57.9 -2 57.25 L-1.7 56.7 -0.35 55.7 7.4 55.5 Q8 50.75 16.4 51.35 21.15 54.95 16.5 58 L16.5 58.4 28.65 65.45 40.9 58.4 40.9 58 Q36.25 54.95 41 51.35 49.4 50.75 50.1 55.5 L57.75 55.7 59.1 56.7 59.45 57.25 Q59.95 57.9 60.3 59.5 60.7 61.2 58.2 63 55.6 64.75 50.3 61.9 L42 67.4 41.8 67.45 40.5 68.35 Q38.75 69.55 38.75 70.2"/>
    <path fill="none" stroke="#254c47" stroke-width="2.5" stroke-linecap="round" stroke-linejoin="round" d="M38.75 70.2 Q38.75 69.55 40.5 68.35 L41.8 67.45 42 67.4 50.3 61.9 Q55.6 64.75 58.2 63 60.7 61.2 60.3 59.5 59.95 57.9 59.45 57.25 L59.1 56.7 57.75 55.7 50.1 55.5 Q49.4 50.75 41 51.35 36.25 54.95 40.9 58 L40.9 58.4 28.65 65.45 16.5 58.4 16.5 58 Q21.15 54.95 16.4 51.35 8 50.75 7.4 55.5 L-0.35 55.7 -1.7 56.7 -2 57.25 Q-2.55 57.9 -2.85 59.5 -3.3 61.2 -0.8 63 1.7 64.75 7.1 61.9 L15.6 67.45 Q17.95 68.9 18.6 69.8 L18.9 70.35 Q18.9 71.15 15.7 73.1 L15.6 73.1 7.15 78.65 Q1.85 75.7 -0.7 77.55 -3.1 79.35 -2.85 81 -2.5 82.65 -1.9 83.3 L-1.65 83.75 -0.3 84.85 Q2.2 86.05 7.45 85 8.1 89.8 16.45 89.2 21.2 85.5 16.7 82.45 L16.7 82.15 28.8 75.05 40.95 82.15 40.95 82.45 Q36.3 85.5 41.1 89.2 49.45 89.8 50.1 85 55.35 86.05 57.8 84.85 L59.2 83.75 59.45 83.3 Q60 82.65 60.4 81 60.75 79.35 58.25 77.55 55.8 75.7 50.4 78.65 L41.85 73.1 38.95 70.75 38.75 70.35 38.75 70.2"/>
    <path stroke="none" fill="#64ccbc" d="M5.5 21.9 L5.4 21.8 5.55 20.5 Q5.9 16.7 7.05 12.8 10.45 1.4 28.8 1.4 47.15 1.4 50.6 12.8 51.7 16.7 52.1 20.5 L52.2 21.8 52.15 21.9 52.2 21.9 Q52.7 28.4 50.9 34.65 41.35 53.6 28.8 53.75 16.25 53.6 6.75 34.65 4.95 28.4 5.4 21.9 L5.5 21.9 Q8.25 32.6 21.5 30.95 18.7 20.35 5.5 21.9 M52.15 21.9 Q39 20.35 36.2 30.95 49.45 32.6 52.15 21.9"/>
    <path stroke="none" fill="#254c47" d="M52.15 21.9 Q49.45 32.6 36.2 30.95 39 20.35 52.15 21.9 M5.5 21.9 Q18.7 20.35 21.5 30.95 8.25 32.6 5.5 21.9"/>
    <path fill="none" stroke="#254c47" stroke-width="2.5" stroke-linecap="round" stroke-linejoin="round" d="M52.15 21.9 L52.2 21.8 52.1 20.5 Q51.7 16.7 50.6 12.8 47.15 1.4 28.8 1.4 10.45 1.4 7.05 12.8 5.9 16.7 5.55 20.5 L5.4 21.8 5.5 21.9 Q18.7 20.35 21.5 30.95 8.25 32.6 5.5 21.9 L5.4 21.9 Q4.95 28.4 6.75 34.65 16.25 53.6 28.8 53.75 41.35 53.6 50.9 34.65 52.7 28.4 52.2 21.9 L52.15 21.9 Q49.45 32.6 36.2 30.95 39 20.35 52.15 21.9"/>
  </g>
</svg>