<?xml version="1.0" encoding="UTF-8"?>
<svg width="289.7" height="204.87" version="1.1" xmlns="http://www.w3.org/2000/svg">
 <g transform="translate(-250.08 -122.88)">
  <g fill="#69c7b9" stroke="#000" stroke-miterlimit="10">
   <path d="m472.22 176.72 51.379-53.334h-57.871l-23.78 23.582c12.439 7.301 23.009 17.446 30.272 29.752z"/>
   <path d="m348.43 146.88-23.702-23.504h-58.458l51.813 53.446c7.378-12.381 17.932-22.603 30.347-29.942z"/>
   <path d="m473.91 262.4c-8.827 12.713-18.079 24.66-27.611 34.694l30.587 30.146h61.689z"/>
   <path d="m316.58 262.13-65.291 65.113h61.983l30.951-30.398c-9.678-10.219-18.994-22.271-27.643-34.715z"/>
  </g>
  <path d="m321.74 210.08c4.772-36.062 37.657-61.223 73.17-61.196 35.521-0.026 69.404 24.967 73.173 61.192 1.357 13.134 4.28 29.524-4.573 42.577-20.795 30.648-44.557 57.04-68.6 56.722-23.485 0.346-47.969-27.439-67.868-56.719-9.336-13.731-6.895-30.389-5.302-42.576z" fill="#69c7b9" stroke="#000" stroke-miterlimit="10"/>
  <path d="m364.45 225.26c-3.089-4.206-6.671-8.021-9.612-10.04-7.597-5.205-19.272-4.282-22.826 0.89-3.545 5.166-0.205 16.396 7.376 21.611 2.34 1.608 5.89 3.189 9.78 4.457 8.877 3.928 21.006 6.745 23.806 3.358 2.686-3.253-2.619-13.102-8.524-20.276z"/>
  <path d="m458 216.11c-3.553-5.172-15.229-6.095-22.827-0.89-2.941 2.02-6.522 5.834-9.609 10.04-5.907 7.174-11.211 17.023-8.524 20.276 2.798 3.387 14.929 0.569 23.806-3.358 3.889-1.268 7.439-2.849 9.779-4.457 7.58-5.214 10.921-16.445 7.375-21.611z"/>
 </g>
</svg>
