<svg xmlns="http://www.w3.org/2000/svg" xmlns:xlink="http://www.w3.org/1999/xlink">
  <defs/>
  <filter id="drop-shadow"> 
    <feGaussianBlur in="SourceAlpha" stdDeviation="2" result="blur"/>
    <feOffset in="blur" dx="2" dy="2" result="offsetBlur"/>
    <feMerge>
        <feMergeNode in="offsetBlur"/>
        <feMergeNode in="SourceGraphic"/>
    </feMerge>
  </filter>
  <g style="filter: url(#drop-shadow);">
    <path stroke="#254C47" stroke-width="2.5" stroke-linecap="round" stroke-linejoin="round" fill="#64CCBC" d="M52.2 46.4 Q52.5 47.5 50.5 48.7 48.4 49.85 44 47.95 L36 52.15 Q34.55 52.95 34.55 53.4 L34.55 53.45 34.75 53.75 Q35.3 54.35 37.15 55.25 L44.1 58.9 Q48.5 57 50.55 58.2 52.55 59.35 52.3 60.45 52 61.5 51.55 61.95 L51.3 62.25 50.2 62.95 Q48.15 63.75 43.9 63.05 43.35 66.2 36.5 65.8 32.6 63.4 36.35 61.4 L36.35 61.2 26.4 56.55 16.5 61.2 16.5 61.4 Q20.2 63.4 16.35 65.8 9.5 66.2 8.95 63.05 4.7 63.75 2.6 62.95 L1.55 62.25 1.3 61.95 Q0.8 61.5 0.55 60.45 0.3 59.35 2.3 58.2 4.35 57 8.75 58.9 L15.6 55.25 15.7 55.25 Q18.3 54 18.3 53.45 L18.1 53.1 15.6 51.6 8.7 47.95 Q4.3 49.85 2.2 48.7 0.2 47.5 0.55 46.4 0.75 45.35 1.2 44.9 L1.5 44.55 Q1.95 44.2 2.55 43.9 L8.9 43.75 Q9.4 40.65 16.3 41.05 20.15 43.4 16.4 45.4 L16.4 45.65 26.35 50.25 36.3 45.65 36.3 45.4 Q32.55 43.4 36.4 41.05 43.3 40.65 43.9 43.75 L50.15 43.9 51.2 44.55 51.55 44.9 Q51.95 45.35 52.2 46.4"/>
    <path stroke="#254C47" stroke-width="2.5" stroke-linecap="round" stroke-linejoin="round" fill="#64CCBC" d="M45.45 16.8 L45.5 16.8 Q45.9 22.1 44.4 27.2 36.6 42.7 26.35 42.8 16.1 42.7 8.35 27.2 6.9 22.1 7.25 16.8 L7.35 16.8 7.25 16.7 7.35 15.6 Q7.65 12.55 8.6 9.35 11.35 0.05 26.35 0.05 41.35 0.05 44.15 9.35 45.1 12.55 45.4 15.6 L45.5 16.7 45.45 16.8 Q34.65 15.5 32.4 24.2 43.25 25.5 45.45 16.8 M7.35 16.8 Q9.55 25.5 20.4 24.2 18.1 15.5 7.35 16.8"/>
    <path stroke="#254C47" stroke-width="2.5" stroke-linecap="round" stroke-linejoin="round" fill="#254C47" d="M7.35 16.8 Q18.1 15.5 20.4 24.2 9.55 25.5 7.35 16.8 M45.45 16.8 Q43.25 25.5 32.4 24.2 34.65 15.5 45.45 16.8"/>
    </g>
</svg>